<svg id="visual" viewBox="0 0 5960 4040" width="5960" height="4040" xmlns="http://www.w3.org/2000/svg" xmlns:xlink="http://www.w3.org/1999/xlink" version="1.1"><rect x="0" y="0" width="5960" height="4040" fill="#ffffff"></rect><path d="M0 1518L141.8 1533.3C283.7 1548.7 567.3 1579.3 851.2 1525.7C1135 1472 1419 1334 1702.8 1258.5C1986.7 1183 2270.3 1170 2554.2 1183C2838 1196 3122 1235 3405.8 1294.5C3689.7 1354 3973.3 1434 4257.2 1394.2C4541 1354.3 4825 1194.7 5108.8 1162.5C5392.7 1130.3 5676.3 1225.7 5818.2 1273.3L5960 1321L5960 0L5818.2 0C5676.3 0 5392.7 0 5108.8 0C4825 0 4541 0 4257.2 0C3973.3 0 3689.7 0 3405.8 0C3122 0 2838 0 2554.2 0C2270.3 0 1986.7 0 1702.8 0C1419 0 1135 0 851.2 0C567.3 0 283.7 0 141.8 0L0 0Z" fill="#fa7268"></path><path d="M0 1199L141.8 1181.7C283.7 1164.3 567.3 1129.7 851.2 1115.5C1135 1101.3 1419 1107.7 1702.8 1076.5C1986.7 1045.3 2270.3 976.7 2554.2 939.8C2838 903 3122 898 3405.8 968.3C3689.7 1038.7 3973.3 1184.3 4257.2 1170.5C4541 1156.7 4825 983.3 5108.8 961C5392.7 938.7 5676.3 1067.3 5818.2 1131.7L5960 1196L5960 0L5818.2 0C5676.3 0 5392.7 0 5108.8 0C4825 0 4541 0 4257.2 0C3973.3 0 3689.7 0 3405.8 0C3122 0 2838 0 2554.2 0C2270.3 0 1986.7 0 1702.8 0C1419 0 1135 0 851.2 0C567.3 0 283.7 0 141.8 0L0 0Z" fill="#f68370"></path><path d="M0 912L141.8 864.2C283.7 816.3 567.3 720.7 851.2 698.8C1135 677 1419 729 1702.8 782.7C1986.7 836.3 2270.3 891.7 2554.2 929C2838 966.3 3122 985.7 3405.8 971.8C3689.7 958 3973.3 911 4257.2 856.5C4541 802 4825 740 5108.8 747.8C5392.7 755.7 5676.3 833.3 5818.2 872.2L5960 911L5960 0L5818.2 0C5676.3 0 5392.7 0 5108.8 0C4825 0 4541 0 4257.2 0C3973.3 0 3689.7 0 3405.8 0C3122 0 2838 0 2554.2 0C2270.3 0 1986.7 0 1702.8 0C1419 0 1135 0 851.2 0C567.3 0 283.7 0 141.8 0L0 0Z" fill="#f2937a"></path><path d="M0 487L141.8 538.2C283.7 589.3 567.3 691.7 851.2 729.2C1135 766.7 1419 739.3 1702.8 715.3C1986.7 691.3 2270.3 670.7 2554.2 649.8C2838 629 3122 608 3405.8 580.7C3689.7 553.3 3973.3 519.7 4257.2 521.2C4541 522.7 4825 559.3 5108.8 573.5C5392.7 587.7 5676.3 579.3 5818.2 575.2L5960 571L5960 0L5818.2 0C5676.3 0 5392.7 0 5108.8 0C4825 0 4541 0 4257.2 0C3973.3 0 3689.7 0 3405.8 0C3122 0 2838 0 2554.2 0C2270.3 0 1986.7 0 1702.8 0C1419 0 1135 0 851.2 0C567.3 0 283.7 0 141.8 0L0 0Z" fill="#eea186"></path><path d="M0 496L141.8 494.5C283.7 493 567.3 490 851.2 446.7C1135 403.3 1419 319.7 1702.8 281C1986.7 242.3 2270.3 248.7 2554.2 254.3C2838 260 3122 265 3405.8 277.3C3689.7 289.7 3973.3 309.3 4257.2 331C4541 352.7 4825 376.3 5108.8 389.2C5392.7 402 5676.3 404 5818.2 405L5960 406L5960 0L5818.2 0C5676.3 0 5392.7 0 5108.8 0C4825 0 4541 0 4257.2 0C3973.3 0 3689.7 0 3405.8 0C3122 0 2838 0 2554.2 0C2270.3 0 1986.7 0 1702.8 0C1419 0 1135 0 851.2 0C567.3 0 283.7 0 141.8 0L0 0Z" fill="#e9af95"></path></svg>